<svg width="5341" height="1000" viewBox="0 0 5341 1000" fill="none" xmlns="http://www.w3.org/2000/svg">
<g clip-path="url(#clip0_1769_2087)">
<mask id="mask0_1769_2087" style="mask-type:luminance" maskUnits="userSpaceOnUse" x="1" y="-100" width="5340" height="1200">
<path d="M5341 -100H1V1100H5341V-100Z" fill="white"/>
</mask>
<g mask="url(#mask0_1769_2087)">
<path d="M4031.13 805.02C4030.19 820.53 4029.9 834.62 4030.73 847H4097.98C4096.35 819.66 4091.01 794.16 4076.74 779.89C4055.04 758.19 4028.19 767.84 4031.13 805.02Z" fill="black"/>
<path d="M4293.68 804.6C4294.64 820.49 4294.36 834.38 4293.48 847H4223.4C4228.08 772.1 4262.42 684.34 4293.68 804.6Z" fill="black"/>
<path d="M4251.01 643.02C4248.1 653.86 4262.44 655.48 4269.29 658.22C4262.84 660.54 4262.34 661.01 4257.18 661.01C4262.29 668.79 4264.58 672.19 4273.02 672.19C4267.19 678.44 4267.79 676.92 4262.77 675.91C4271.27 686.77 4286.06 696.3 4286.06 710.37C4282.55 703.01 4273.83 703.85 4269.29 702.92C4283.7 718.24 4303.66 733.87 4296.3 752.28C4291.99 745.18 4285.09 743 4281.4 742.04C4284.49 748.27 4288.46 753.65 4289.78 756.94C4295.85 767.47 4309.33 785.62 4300.02 805.36C4301.67 799.86 4296.52 797.07 4295.37 794.19C4294.04 805.82 4293.25 812.48 4295.37 823.06C4288.69 820.37 4284.91 820.66 4283.26 816.54C4285.35 828.87 4283.47 838.03 4279.55 847L4043.25 846.49C4039.72 837.81 4039.53 828.85 4041.54 816.96C4039.9 821.08 4036.12 820.79 4029.44 823.48C4031.55 812.9 4030.77 806.23 4029.44 794.61C4028.29 797.48 4023.13 800.28 4024.78 805.78C4015.47 786.04 4028.95 767.89 4035.03 757.35C4036.34 754.07 4040.33 748.68 4043.41 742.45C4039.72 743.42 4032.82 745.6 4028.51 752.7C4021.14 734.28 4041.1 718.66 4055.52 703.34C4050.97 704.27 4042.26 703.43 4038.75 710.79C4038.75 696.71 4053.54 687.19 4062.03 676.33C4057.02 677.33 4057.62 678.85 4051.79 672.6C4060.22 672.6 4062.52 669.21 4067.62 661.43C4062.47 661.43 4061.96 660.96 4055.52 658.63C4062.37 655.89 4076.7 654.81 4073.79 643.98C4130.98 600.73 4194.41 633.79 4251.01 643.02Z" fill="black"/>
<path d="M4078.32 598.03C4070.23 618.55 4072.9 634.79 4066.69 640.68H4072.28C4070.68 649.17 4068 646.87 4065.76 650.11C4068.26 652.52 4069.96 650.87 4072.28 651.29C4067.27 665.89 4074.33 675.64 4079.73 680.76C4085.86 694.43 4100.98 705.43 4110.46 710.23C4105.28 704.25 4105.8 702.9 4105.8 696.08C4109.88 715.36 4124.41 713.1 4129.09 727.91C4130.2 723.18 4130.02 718.56 4130.02 713.76C4132.43 726.16 4145.92 742.04 4155.16 739.7C4149.08 732.95 4150.89 732.34 4151.7 727.22C4154.44 736.33 4163.74 736.19 4168.63 744.45C4178.89 743.88 4192.38 725.63 4194.78 713.24C4194.78 718.04 4194.61 722.65 4195.72 727.38C4200.4 712.57 4214.92 714.84 4219 695.56C4219 702.37 4219.52 703.72 4214.34 709.7C4223.82 704.9 4238.94 693.9 4245.08 680.23C4250.47 675.11 4257.53 665.36 4252.53 650.77C4254.85 650.35 4256.55 651.99 4259.04 649.58C4256.8 646.34 4254.13 648.64 4252.53 640.16H4258.11C4251.91 634.26 4253.42 616.56 4245.33 597.5C4231.3 531 4084.31 516.37 4078.32 598.03Z" fill="black"/>
<path d="M4106.1 630.561C4102.74 627.161 4095.36 619.531 4090.09 613.781C4081.94 609.561 4079.39 603.251 4077 590.371C4062.92 552.991 4062.14 493.911 4098.24 473.441C4112.13 463.481 4137.26 456.501 4162.22 456.641C4187.17 456.781 4212.3 463.761 4226.19 473.711C4262.66 499.451 4255.62 559.991 4244.98 591.641C4243.16 606.781 4240.6 613.091 4232.45 617.311C4227.19 623.061 4219.81 630.691 4216.45 634.091C4192.56 649.121 4124.85 646.901 4106.1 630.561Z" fill="black"/>
<path d="M4246.96 468.68C4245.72 473.59 4246.9 476.22 4240.72 478.93C4245.86 479.4 4247.16 480.3 4254.7 475.56C4254.22 481.77 4251.1 482.92 4249.82 484.46C4259.82 495.02 4298.77 502.97 4309.78 520.65C4313.78 527.07 4314.94 531.72 4319.47 536.09C4316.63 537.25 4312.26 534.69 4309.46 533.32C4310.37 535.43 4312.93 541.22 4315.21 542.91C4309.99 543.16 4309.87 541.77 4306.31 540.34C4306.98 543.74 4309.49 547.25 4311.7 551.16C4309.15 551.82 4307.27 553.15 4304.06 549.87C4297.11 571.33 4281.81 587.16 4282.17 604.3C4282.25 607.98 4283.28 610.12 4287.91 611.91C4282.56 613.48 4277.04 611.92 4274.9 608.73C4274.13 612.56 4275.46 616.16 4278.43 619.54C4273.09 617.28 4271.67 619.32 4268.27 614.77C4267.66 617.46 4267.18 619.42 4267.86 622.46C4261.45 619.52 4247.47 601.66 4245.81 597.66C4238.52 580.18 4244.97 550.36 4244.77 526.77C4244.64 510.44 4241.94 488.9 4227.58 475.78C4231.62 472.54 4237.75 476.18 4246.96 468.68Z" fill="black"/>
<path d="M4081.4 465.15C4082.64 470.05 4084.1 472.16 4084.99 474.87C4079.85 475.34 4076.98 475.71 4069.43 470.98C4069.91 477.18 4074.09 477.27 4075.9 479.87C4065.89 490.43 4023.78 499.44 4012.77 517.12C4008.77 523.54 4007.61 528.19 4003.08 532.55C4005.92 533.72 4010.28 531.15 4013.08 529.78C4012.17 531.9 4009.62 537.69 4007.33 539.38C4012.56 539.63 4012.67 538.24 4016.24 536.81C4015.57 540.21 4013.06 543.72 4010.85 547.63C4013.4 548.28 4015.28 549.62 4018.49 546.34C4025.44 567.8 4040.74 583.63 4040.37 600.77C4040.3 604.45 4039.26 606.59 4034.64 608.38C4039.99 609.95 4045.5 608.39 4047.65 605.2C4048.41 609.03 4047.09 612.63 4044.12 616C4049.45 613.75 4050.88 615.79 4054.28 611.24C4054.89 613.93 4055.37 615.89 4054.68 618.93C4061.09 615.99 4075.08 598.13 4076.74 594.13C4084.03 576.65 4077.58 546.83 4077.78 523.23C4077.91 506.91 4086.51 483.4 4099.27 473.53C4096.74 470.07 4090.08 474.23 4081.4 465.15Z" fill="black"/>
<path d="M1601.57 787.07C1598.42 801.17 1589.19 809.45 1577.13 814.61C1583.23 818.33 1588.31 818.96 1592.06 818.96C1581.63 822.14 1580.44 829.81 1570.33 827.65C1578.77 839.24 1581.8 844.18 1591.79 846.31L1835.24 846.889C1845.23 844.759 1847.72 838.74 1856.16 827.15C1846.05 829.3 1844.87 821.64 1834.43 818.45C1838.18 818.45 1843.26 817.83 1849.37 814.1C1837.3 808.95 1828.07 800.67 1824.92 786.57C1824.93 779.17 1817.58 769.23 1813.62 765.27C1803.5 755.15 1752.97 695.09 1714.97 695.4C1688.65 695.61 1616.4 738.02 1601.57 787.07Z" fill="black"/>
<path d="M1614.05 828.289C1606.09 832.629 1604.51 835.479 1600.59 840.719C1611.79 841.279 1615.7 836.519 1614.05 828.289Z" fill="black"/>
<path d="M1778.86 784.53C1792.67 795.07 1806.17 798.98 1827.05 798.89C1818.19 792.8 1817.13 778.35 1811.85 767.86C1818.88 776.06 1823.3 783.86 1836.79 782.54C1825.83 777.05 1821.74 766.55 1817.66 758.06C1827.02 761.81 1836.5 764.91 1846.36 765.95C1836.24 761.9 1832.95 751.22 1824.44 740.09C1828.55 745.56 1838.47 750.93 1848.36 752.14C1834.3 740.79 1828.51 720.28 1820.51 690.76C1817.39 652.02 1808.69 597.29 1761.7 594.8C1724.75 590.89 1689.34 587.11 1665.35 592.4C1622.99 600.87 1611.35 628.29 1608.29 690.3C1599.97 720.35 1594.18 740.86 1580.12 752.2C1590.02 751 1599.94 745.63 1604.04 740.15C1595.53 751.29 1592.25 761.96 1582.12 766.01C1591.99 764.98 1601.47 761.87 1610.82 758.13C1606.74 766.62 1602.66 777.11 1591.69 782.61C1605.18 783.93 1609.6 776.13 1616.63 767.93C1611.36 778.42 1610.29 792.87 1601.44 798.95C1622.31 799.05 1635.81 795.13 1649.62 784.59C1671.44 772.3 1697.45 760.18 1713.95 747.8C1733.42 760.25 1757.69 768.04 1778.86 784.53Z" fill="black"/>
<path d="M1665.85 593.73C1650.32 592.18 1648.25 581.12 1645.74 568.59C1642.33 574.62 1642.56 578.65 1643.5 583.38C1638.15 577.6 1637.02 573.24 1637.02 566.57C1634.81 573.77 1633.67 581.11 1635.81 586.47C1603.7 588.5 1574.14 622.65 1546.31 618.73C1548.16 625.65 1555.67 626.97 1562 626.97C1555.08 629.36 1550.88 630.4 1541.89 630C1545.32 634.48 1553.14 638.39 1559.69 637.94C1559.12 660.8 1585.33 674.19 1578.42 701.81C1580.04 701.33 1585.76 697.72 1589.47 694.91C1591.23 698.2 1590.75 700.44 1589.24 706.84C1612.58 691 1617.48 682.58 1622.06 653.7C1626.29 626.98 1653.32 602.37 1660.04 603.72C1666.62 599.19 1666.94 600.42 1665.85 593.73Z" fill="black"/>
<path d="M1762.63 593.67C1778.17 592.11 1780.24 581.06 1782.74 568.53C1786.15 574.55 1785.93 578.58 1784.98 583.31C1790.34 577.53 1791.46 573.18 1791.46 566.5C1793.67 573.7 1794.81 581.04 1792.67 586.4C1824.78 588.44 1854.34 622.58 1882.18 618.67C1880.33 625.59 1872.81 626.9 1866.49 626.9C1873.4 629.29 1877.6 630.33 1886.59 629.94C1883.17 634.41 1875.34 638.33 1868.79 637.87C1869.36 660.73 1843.15 674.12 1850.07 701.75C1848.44 701.27 1842.73 697.65 1839.02 694.84C1837.25 698.13 1837.74 700.38 1839.24 706.77C1815.91 690.93 1811 682.51 1806.43 653.64C1802.19 626.92 1775.16 602.31 1768.44 603.65C1761.65 599.03 1763.37 599.63 1762.63 593.67Z" fill="black"/>
<path d="M4700.95 846.12C4701.19 830.51 4698.06 816.05 4695.25 799.53C4688.48 759.89 4653.38 702.369 4612.19 669.439L4444.21 672.089C4402.58 704.489 4367.47 762.009 4360.7 801.649C4357.97 817.659 4355.56 830.96 4355.68 846.12H4700.95Z" fill="black"/>
<path d="M4621.17 595.42C4627.7 606.16 4645.77 664.51 4634.64 696.35C4661.08 721.75 4685.3 789.42 4678.37 844.67L4378.85 846.12C4371.93 790.87 4394.87 723.86 4421.31 698.47C4410.17 666.62 4428.25 608.28 4434.78 597.54C4454.14 553.09 4598.93 553.54 4621.17 595.42Z" fill="black"/>
<path d="M4431.66 467.671C4431.53 497.411 4417.68 545.521 4421.14 564.981C4423.47 578.081 4426.02 616.191 4488.81 635.451C4510.63 637.701 4537.92 638.241 4559.51 635.851C4623.4 616.781 4629.83 581.591 4632.03 565.711C4634.53 547.601 4623.7 503.801 4622.35 474.581C4621.81 462.881 4625.49 457.811 4629.05 451.231C4646.89 442.161 4632.32 414.191 4612.96 411.481C4598.46 394.991 4541.35 394.611 4527.68 394.311C4514 394.021 4457.03 395.181 4443.18 410.891C4426.84 418.181 4411.28 440.311 4426.33 450.211C4428.54 454.971 4431.7 458.911 4431.66 467.671Z" fill="black"/>
<path d="M4698.53 459.119C4699.63 473.019 4678.96 494.929 4670.32 513.669C4663.45 528.579 4671.9 542.589 4656.53 536.929C4613.72 521.159 4643.9 437.609 4611.19 410.199C4643.95 417.159 4696.89 438.459 4698.53 459.119Z" fill="black"/>
<path d="M4356.83 458.53C4355.72 472.43 4376.39 494.34 4385.04 513.08C4391.91 527.98 4383.46 542 4398.83 536.33C4441.63 520.56 4409.51 435.44 4446.57 408.82C4413.4 416.57 4358.47 437.87 4356.83 458.53Z" fill="black"/>
<path d="M522.292 709.199C530.409 746.229 522.091 802.389 513.383 846.729H164.413C154.736 802.329 145.298 747.119 153.45 709.929L522.292 709.199Z" fill="black"/>
<path d="M176.961 563.061C159.346 579.541 153.184 594.431 147.466 610.181H157.789C142.205 620.801 141.295 641.811 135.668 657.301C138.126 656.761 140.584 656.221 143.042 655.681H144.518C133.52 675.761 129.601 699.891 137.144 720.671L143.042 712.551H144.518C136.917 726.091 142.568 747.061 148.941 756.421C153.327 772.551 152.233 785.141 160.739 792.171C164.035 807.691 173.396 822.121 182.86 826.291C181.284 819.131 184.188 823.691 185.306 804.691C192.557 816.921 191.977 833.651 202.098 838.111C204.025 841.041 206.278 844.481 207.994 846.731H468.371C470.551 844.011 471.856 841.941 474.351 838.151C484.471 833.691 483.891 816.961 491.144 804.731C492.26 823.731 495.165 819.181 493.59 826.341C503.054 822.171 512.415 807.731 515.71 792.211C524.216 785.191 523.12 772.591 527.508 756.471C533.882 747.101 539.532 726.131 531.932 712.591H533.407L539.305 720.721C546.849 699.941 542.929 675.811 531.932 655.721H533.407C535.864 656.261 538.322 656.801 540.78 657.351C535.155 641.851 534.244 620.841 518.659 610.221H528.982C523.265 594.471 517.104 579.581 499.489 563.101C416.354 503.651 260.16 487.201 176.961 563.061Z" fill="black"/>
<path d="M479.265 485.901C484.881 499.151 495.361 502.741 501.288 517.561H493.029C504.058 527.831 510.923 531.57 510.923 542.33C505.454 537.72 502.769 537.95 497.158 536.83C504.62 546.63 505.033 555.27 502.665 567.11C489.717 565.47 496.367 582.501 487.524 589.141C484.855 602.881 474.468 608.381 468.252 616.661C469.846 603.391 453.532 632.62 448.982 638.69C435.714 647.5 420.481 654.71 402.182 659.48C391.88 660.69 317.054 666.26 277.509 659.19C260.5 656.33 253.065 649.601 230.451 638.051C225.901 631.991 209.587 602.751 211.18 616.031C204.966 607.741 194.579 602.241 191.91 588.501C183.066 581.861 189.717 564.83 176.769 566.48C174.399 554.63 174.813 545.99 182.274 536.19C176.665 537.32 173.979 537.09 168.51 541.7C168.51 530.94 175.375 527.191 186.403 516.921H178.145C184.073 502.101 194.552 498.511 200.168 485.261C232.747 452.801 462.239 455.621 479.265 485.901Z" fill="black"/>
<path d="M446.562 282.231C433.16 269.611 391.144 256.531 339.674 256.031C288.205 255.541 247.915 268.621 234.513 281.231C178.235 310.581 210.343 425.781 202.963 465.881C202.652 482.981 205.374 495.101 214.989 504.721C216.801 501.721 219.549 499.401 221.829 496.741C218.603 508.131 223.188 516.031 227.527 521.821C223.739 515.211 227.147 513.971 229.808 510.421C235.176 533.231 261.623 542.421 280.761 550.881C319.841 534.741 363.94 537.001 402.918 553.421C419.452 543.411 445.898 534.221 451.267 511.411C453.927 514.951 457.334 516.201 453.546 522.811C457.887 517.021 462.472 509.121 459.246 497.731C461.525 500.391 464.273 502.711 466.085 505.711C475.701 496.101 478.422 483.971 477.814 468.591C495.913 390.101 476.353 311.371 446.562 282.231Z" fill="black"/>
<path d="M205.653 267.43C206.775 276.84 212.463 279.27 217.199 282.83C208.583 281.69 202.139 280.48 198.772 275.99C203.341 285.61 203.382 286.05 210.318 288.82C159.491 319.07 152.589 368.12 105.566 377.01C115.659 381.27 119.16 383.38 128.658 379.58C123.354 385.5 115.95 385.46 113.264 385.99C120.819 390.33 127.063 388.17 132.506 385.99C121.878 410.5 165.792 438.5 173.558 466.81C176.229 476.46 171.118 480.76 167.144 486.06C176.501 484.13 178.493 480.13 181.256 473.23C184.666 482.86 180.833 485.34 177.406 489.9C195.781 474.41 221.568 454.04 221.999 397.48C222.273 361.41 214.713 324.81 236.929 279.86C221.642 266.22 214.651 274.18 205.653 267.43Z" fill="black"/>
<path d="M476.283 268.42C475.161 277.82 469.473 280.27 464.737 283.82C473.353 282.68 479.797 281.47 483.163 276.98C478.594 286.6 478.553 287.04 471.617 289.81C522.443 320.06 528.484 369.11 575.507 378C565.414 382.26 561.913 384.37 552.415 380.57C557.719 386.49 565.123 386.44 567.809 386.98C560.253 391.32 554.009 389.16 548.565 386.98C559.194 411.49 515.281 439.49 507.515 467.8C504.844 477.45 509.955 481.75 513.929 487.05C504.572 485.12 502.58 481.12 499.817 474.22C496.405 483.85 500.24 486.33 503.665 490.9C485.292 475.4 459.504 455.03 459.074 398.47C458.798 362.4 465.148 323.38 443.365 278.43C459.083 264.79 467.284 275.17 476.283 268.42Z" fill="black"/>
<path d="M992.812 844.58C993.079 779.38 1037.45 690.53 1087.82 663.92C1143.13 695.11 1181.16 782.59 1182.04 844.58H992.812Z" fill="black"/>
<path d="M954.801 779.24C945.81 801.2 943.838 825.601 946.053 846.531L1021.99 844.341C1014.58 813.201 992.225 775.32 1055.59 730.48C1045.93 700.87 1027.94 688.921 1014.49 660.811C992.107 698.161 971.198 739.19 954.801 779.24Z" fill="black"/>
<path d="M1222.94 779.37C1232.16 801.88 1234 823.529 1231.51 844.969L1150.34 844.58C1157.16 810.65 1185.15 767.81 1118.37 731.5C1129.09 701.11 1151.79 684.899 1163.25 660.939C1186.53 700.089 1206.54 739.32 1222.94 779.37Z" fill="black"/>
<path d="M1159.02 684.37C1141.47 721.49 1108.56 746.24 1089.4 745.46C1070.24 744.69 1033.38 721.69 1012.97 685.09C1001.76 657.04 1016.35 601.78 1024.53 577.31C1034.48 531.93 1136.42 534.67 1149.49 581.5C1159.99 600.77 1171.8 656.32 1159.02 684.37Z" fill="black"/>
<path d="M998.418 436.37C996.481 444.1 982.832 478.81 981.508 493.57C979.349 517.7 994.018 571 1019.03 589.36C1038.76 606.35 1129.05 605.72 1151.72 589.8C1169.57 573.72 1189.6 520.09 1187.44 495.95C1186.12 481.2 1174.19 449.18 1173.2 438.76C1172.81 426.23 1167.75 414.69 1162.15 407.71C1147.87 399.22 1106.62 390.88 1087.94 391.36C1069.26 391.84 1023.51 396.91 1010.21 405.79C1006.77 410.15 1001.28 424.58 998.418 436.37Z" fill="black"/>
<path d="M1011.02 407.211C973.863 424.191 923.607 425.871 922.058 449.601C920.874 467.721 938.121 541.531 951.645 530.841C972.788 514.141 967.055 463.721 1001.15 434.461C1011.81 428.551 1016.53 413.341 1011.02 407.211Z" fill="black"/>
<path d="M1160.7 408.779C1197.85 425.769 1252.92 428.339 1254.47 452.079C1255.66 470.199 1233.61 543.999 1220.08 533.319C1198.93 516.609 1204.66 466.189 1170.56 436.939C1160.48 433.199 1161.5 420.109 1160.7 408.779Z" fill="black"/>
<path d="M593.93 844.871C602.207 813.721 617.321 785.471 643.865 772.371C654.386 792.151 663.458 817.151 669.992 844.871H593.93Z" fill="black"/>
<path d="M874.072 846.22C866.467 812.58 849.129 785.19 821.2 771.41C810.756 791.04 801.741 814.63 795.217 842.09L874.072 846.22Z" fill="black"/>
<path d="M615.724 792.641C600.73 808.101 590.93 825.761 585.512 844.391L603.471 844.871C605.456 827.611 610.172 807.961 615.724 792.641Z" fill="black"/>
<path d="M850.24 793.371C865.223 808.821 875.02 826.461 880.439 845.091L862.876 844.521C860.957 826.991 855.883 808.941 850.24 793.371Z" fill="black"/>
<path d="M830.896 726.11C844.868 736.61 858.86 765.4 856.071 800.23C853.733 814.2 851.911 830.57 849.228 844.87L620.338 845.7C617.798 831.08 615.468 813.7 613.077 799.42C610.29 764.59 623.229 736.85 637.202 726.35C613.685 687.39 618.521 627.3 629.905 613.64C651.896 591.19 811.247 589.45 838.092 611.48C851.583 626.66 851.255 689.26 830.896 726.11Z" fill="black"/>
<path d="M641.267 522.96C632.506 521.32 620.941 516.59 614.052 508.14C585.859 473.58 605.915 345.66 640.959 326.47C661.64 315.15 688.845 400.75 695.501 463.72C699.395 472.29 703.262 484.72 703.987 488.34C687.752 500.27 669.082 526.64 665.469 529.35C656.566 528.45 649.795 527.04 641.267 522.96Z" fill="black"/>
<path d="M828.883 523.19C837.645 521.55 849.209 516.81 856.1 508.37C884.292 473.81 864.235 345.89 829.193 326.7C808.51 315.38 781.305 400.98 774.648 463.94C772.519 472.44 773.881 479.33 772.328 487.1C787.135 503.79 798.643 524.26 807.115 529.35C814.686 527.09 820.639 530.7 828.883 523.19Z" fill="black"/>
<path d="M656.391 682.789C641.395 666.879 625.843 628.149 626.117 611.229C626.603 581.309 638.017 543.049 643.751 522.229C647.755 507.569 681.107 474.039 696.552 468.879C713.672 461.429 749.127 463.099 775.052 468.879C790.471 474.419 820.523 503.339 826.852 519.529C833.004 542.469 842.399 580.729 842.883 610.649C843.158 627.569 831.647 666.309 816.65 682.209C798.023 701.969 770.253 705.259 736.523 686.069C702.79 705.839 675.018 702.549 656.391 682.789Z" fill="black"/>
<path d="M3742.02 736.59C3733.24 767.28 3718.52 807.2 3750.2 845.75L3930.97 845.21C3960.81 807.19 3946.42 768.01 3937.76 737.77C3904.01 671.04 3786.73 632.83 3742.02 736.59Z" fill="black"/>
<path d="M3742.79 632.829C3733.98 631.529 3723.54 622.529 3720.98 615.819C3706.21 576.969 3741.02 483.279 3757.82 478.049C3775.13 472.669 3789.83 545.399 3800.52 562.389C3803.19 567.609 3804.82 570.969 3806.96 573.819C3787.45 593.819 3765.02 611.069 3756.39 632.659C3751.42 634.009 3747.64 633.659 3742.79 632.829Z" fill="black"/>
<path d="M3934.2 632.819C3943.01 631.529 3953.45 622.529 3956.01 615.819C3970.79 576.969 3935.97 483.279 3919.17 478.049C3901.86 472.669 3887.17 545.399 3876.47 562.389C3872.78 566.789 3871.26 571.679 3870.4 573.819C3895.07 593.079 3908.19 618.939 3920.98 636.339C3925.84 634.849 3930.17 635.419 3934.2 632.819Z" fill="black"/>
<path d="M3797.72 566.211C3810.75 563.301 3824.04 561.881 3838.49 561.881C3852.95 561.881 3870.42 564.691 3879.27 566.211C3899.01 581.851 3909.84 595.151 3923.4 611.711C3937.36 637.751 3943.29 665.891 3944.79 699.071C3945.74 719.851 3933.44 740.311 3923.94 754.581C3915.97 766.561 3906.59 775.801 3895.93 780.861C3879.97 788.451 3861.77 774.281 3840.44 758.191C3819.62 773.281 3798.7 787.511 3781.53 779.901C3770.54 775.021 3760.83 766.261 3753.05 754.581C3743.55 740.311 3731.25 719.851 3732.19 699.071C3733.7 665.891 3739.62 637.751 3751.94 613.091C3765.03 601.031 3777.12 580.411 3797.72 566.211Z" fill="black"/>
<path d="M5185.26 845.72C5198.01 847.88 5205.52 826.97 5206.13 819.54C5215.09 804.44 5215.86 782.63 5214.53 770.27C5222.91 747.81 5222.21 738.25 5215.58 719.49C5233.33 648.73 5150.89 539.26 4982.22 503.93C4859.71 523.57 4732.9 634.27 4748.86 719.75C4742.23 738.51 4741.53 748.07 4749.91 770.54C4748.58 782.9 4749.34 804.71 4758.32 819.8C4767.64 841.29 4773.25 845.44 4780.89 845.98L5185.26 845.72Z" fill="black"/>
<path d="M4789.24 583.17C4770.5 601.76 4764.44 619.31 4764.44 633.56C4755.66 642.98 4742.91 664.02 4748.38 674.47C4737.91 691.2 4734.13 719.7 4741.32 735.95C4745.93 725.95 4744.6 725.29 4748.86 719.75C4751.91 729.48 4757.48 726.14 4758.18 726.14C4753.86 719.43 4753.8 714.01 4753.8 706.44C4757.26 695.13 4754.9 683.81 4754.9 673.6C4756.4 662.89 4762.75 652.56 4765.84 648.43C4776.1 639.37 4783.8 622.69 4797.58 625.44C4801.44 611.16 4802.78 584.25 4789.24 583.17Z" fill="black"/>
<path d="M5215.58 719.491C5219.84 725.021 5218.5 725.691 5223.12 735.681C5230.31 719.441 5226.53 690.931 5216.06 674.211C5221.53 663.751 5208.78 642.721 5200 633.291C5200 619.051 5186.9 591.821 5171.68 579.391C5159.61 580.231 5166.8 604.821 5164.24 611.211C5173.06 616.561 5180.68 620.001 5183.94 624.351C5194.79 630.471 5178.06 628.321 5180.65 630.911C5193.4 643.661 5197.19 630.101 5205.83 651.711C5203.62 661.761 5210.21 667.221 5204.74 683.451C5219.91 707.381 5189.2 720.091 5212.39 710.811C5209.29 715.441 5206.98 720.591 5203.64 725.041C5211.33 725.261 5212.09 724.371 5215.58 719.491Z" fill="black"/>
<path d="M5140.67 521.92C5153.37 527.97 5166.91 538.14 5166.91 557.4C5179.42 567.06 5180.09 580.05 5175.58 593.39C5186.44 606.68 5183.49 618.35 5177.03 631.1C5176.48 620.38 5173.19 619.69 5169.8 615.67C5180.05 642.56 5173.65 659.43 5153.88 668.8C5146.86 643.41 5160.61 688.8 5129.29 696.22C5132.59 712.18 5125.44 721.12 5114.82 723.64C5104.5 731.91 5101.87 736.3 5090.23 739.06C5107.22 701.98 5084.57 747.25 5068.52 751.05C5058.12 760.96 5051.27 765.82 5039.58 763.05C5027.79 769.87 5017.77 772.62 5006.31 769.91C4999.31 775.23 4993.65 773.33 4980.61 773.41C4967.58 773.49 4961.93 775.39 4954.92 770.06C4943.46 772.78 4933.43 770.03 4921.65 763.21C4909.97 765.98 4903.11 761.11 4892.71 751.21C4876.66 747.41 4854.01 702.14 4871.01 739.22C4859.36 736.46 4856.72 732.07 4846.41 723.79C4835.79 721.28 4828.64 712.34 4831.94 696.37C4800.61 688.95 4814.38 643.57 4807.35 668.95C4787.58 659.59 4781.18 642.71 4791.43 615.83C4788.04 619.85 4784.75 620.54 4784.2 631.25C4777.74 618.5 4774.79 606.83 4785.64 593.55C4781.14 580.21 4781.81 567.21 4794.33 557.56C4794.33 538.29 4807.86 528.13 4820.55 522.08C4892.1 391.51 5078.46 447.56 5140.67 521.92Z" fill="black"/>
<path d="M5130.37 530.33C5129.71 517.46 5126.31 524.91 5122.41 519.71C5130.87 533.15 5122.58 543.8 5113.11 547.59C5114.42 542.4 5108.89 540.21 5107.8 538.3C5108.18 552.73 5099.28 554.83 5089.21 560.87C5084.94 568.87 5078.93 575.05 5063.14 573.25C5062.93 583.79 5055.19 582.17 5041.66 588.92C5014.25 596.81 4944.21 592.63 4923.8 593C4910.27 586.24 4897.22 582.55 4897.01 572.01C4881.22 573.81 4875.2 567.64 4870.94 559.63C4860.87 553.59 4851.96 551.49 4852.35 537.06C4851.26 538.97 4845.72 541.16 4847.04 546.35C4837.56 542.57 4829.27 531.91 4837.74 518.47C4833.84 523.67 4830.43 516.22 4829.77 529.09C4823.71 521.01 4826.76 513.32 4829.99 500.24C4819.34 444.92 4809.33 338.71 4869.68 298.3C4888.96 279.99 4937.79 259.94 4979.02 260.15C5020.24 260.35 5078.39 283.22 5091.02 297.54C5115.98 343.02 5169.36 451.99 5131.69 501.45C5133.39 514.56 5136.44 522.25 5130.37 530.33Z" fill="black"/>
<path d="M4837.76 289.16C4846.36 292.04 4850.75 298.94 4851.88 300.44C4837.62 304.05 4833.9 306.3 4820.82 308.91C4828.28 324.73 4826.68 312.16 4833.53 315.96C4813.15 320.97 4806.37 321.87 4802.47 341.35C4786.09 348.41 4780.8 360.94 4775.65 373.8C4758.92 384.22 4750.22 394.4 4734.71 400.6C4745.61 412.17 4750.83 406.85 4757.3 402.01C4747.2 409.53 4745.81 410.89 4747.42 418.93C4751.25 414.88 4756.15 414.08 4760.12 411.88C4746.33 425.09 4751.76 438.19 4764.36 445.74C4758.43 437.96 4761.32 437.08 4764.36 433.04C4758.78 456.28 4780.8 464.76 4791.18 472.54C4792.87 480.66 4794 486.23 4794 490.87C4799.54 485.51 4799.86 485.99 4802.47 483.82C4802.21 494 4801.93 511.97 4799.65 517.68C4810.36 513.37 4812.06 510.68 4813.77 502.16C4814.33 505.44 4812.83 508.74 4812.36 512.04C4826.97 505.29 4830.51 501.95 4834.94 490.87C4849.93 469.01 4848.05 445.33 4848.05 412.04C4847.45 373.36 4870.31 327.21 4872.67 294.62C4867.36 282.9 4850.58 289.16 4837.77 289.16H4837.76Z" fill="black"/>
<path d="M5122.93 289.581C5114.34 292.451 5109.95 299.351 5108.82 300.861C5123.07 304.461 5126.81 306.711 5139.87 309.321C5132.42 325.141 5134.01 312.581 5127.17 316.381C5147.55 321.391 5154.33 322.291 5158.22 341.771C5174.6 348.821 5179.9 361.361 5185.05 374.211C5201.78 384.641 5210.48 394.811 5225.99 401.011C5215.09 412.591 5209.86 407.271 5203.4 402.421C5213.5 409.941 5214.9 411.301 5213.28 419.351C5209.45 415.291 5204.54 414.501 5200.58 412.301C5214.37 425.511 5208.93 438.601 5196.34 446.151C5202.27 438.371 5199.37 437.501 5196.34 433.461C5201.92 456.701 5179.9 465.181 5169.52 472.951C5167.82 481.071 5166.7 486.651 5166.7 491.291C5161.17 485.931 5160.84 486.411 5158.22 484.241C5158.48 494.421 5158.76 512.381 5161.05 518.091C5150.33 513.781 5148.64 511.091 5146.93 502.581C5146.37 505.851 5147.88 509.161 5148.34 512.451C5133.73 505.711 5130.19 502.361 5125.76 491.291C5108.11 460.111 5111.31 445.751 5111.31 412.461C5111.92 373.781 5098.38 326.301 5088.03 295.701C5093.34 283.321 5110.12 289.581 5122.93 289.581Z" fill="black"/>
<path d="M2943.54 846.5C2948.13 837.14 2954.75 825.08 2958.66 821.76C2977.22 802.27 3052.48 806.14 3068.59 822.18C3072.74 825.74 3079.79 836.56 3085.12 846.5H2943.54Z" fill="black"/>
<path d="M2974.91 765.009C2967.9 781.389 2960.52 805.899 2961.34 823.109C2963.92 830.429 2971.07 836.919 2978.22 843.379H3051.71C3058.45 837.129 3063.25 830.459 3065.71 823.439C3066.54 806.229 3059.16 781.729 3052.14 765.339C3035.13 751.229 2995.46 751.649 2974.91 765.009Z" fill="black"/>
<path d="M2974.76 782.901C2970.23 772.041 2957.23 763.631 2953.04 753.151C2927.96 727.371 2922.09 685.821 2963.76 656.191C2974.39 651.941 3000.07 646.921 3013.87 647.021C3027.67 647.111 3053.35 652.121 3063.98 656.371C3096.44 667.191 3106.87 734.491 3074.88 752.871C3070.5 763.801 3059.79 771.461 3055.26 782.311C3046.07 792.511 2984.4 792.521 2974.76 782.901Z" fill="black"/>
<path d="M2950.35 646.171C2930.1 661.761 2886.95 691.331 2877.68 705.161C2863.16 726.821 2895.77 768.911 2903.76 789.011C2922.71 836.581 2961.56 813.541 2957.17 768.361C2955.33 749.451 2943.27 737.851 2941.39 714.211C2940.12 698.231 2953.55 668.511 2966.31 654.711C2965.29 650.031 2957.98 640.291 2950.35 646.171Z" fill="black"/>
<path d="M3077.39 646.339C3097.63 661.939 3140.79 691.509 3150.06 705.339C3164.58 726.999 3131.97 769.089 3123.97 789.179C3105.03 836.759 3066.17 813.719 3070.57 768.539C3072.4 749.629 3084.47 738.029 3086.35 714.389C3087.62 698.409 3074.19 669.439 3061.42 654.899C3062.44 650.209 3069.76 640.469 3077.39 646.339Z" fill="black"/>
<path d="M3478.46 830.14C3473.44 835.01 3474.95 841.79 3478.19 845.69H3536.67C3523.02 817.08 3501.88 797.29 3478.46 830.14Z" fill="black"/>
<path d="M3655.02 830.139C3660.04 834.999 3658.81 843.359 3653.22 845.689H3591.3C3593.25 838.689 3596.24 831.169 3601.65 825.769C3606.68 820.739 3619.56 822.559 3624.37 817.749C3633.46 808.669 3659.37 811.929 3655.02 830.139Z" fill="black"/>
<path d="M3640.01 773.35C3644.39 775.82 3646.21 780.91 3644.87 787.09C3651.95 788.96 3653.88 800.96 3647.7 804.69C3655.61 806.52 3653.5 817.31 3650.16 821.42C3658.58 827.05 3654.12 837.01 3646.32 837.12C3647.59 840.77 3649.85 844.68 3647.03 845.69H3486.33C3486.33 845.69 3484.36 838.67 3487.67 837.64C3479.88 837.52 3475.42 827.57 3483.83 821.94C3480.49 817.82 3478.38 807.03 3486.29 805.21C3480.11 801.48 3482.04 789.48 3489.12 787.61C3487.78 781.43 3489.6 776.34 3493.99 773.87C3491.62 769.93 3489.01 763.24 3492 760.25C3550.83 701.42 3612.3 694.71 3640.01 773.35Z" fill="black"/>
<path d="M3618.84 770.08C3625.7 774.51 3622.7 780.14 3616.16 781.45C3618.11 788.05 3616.29 789.48 3609.48 789.48C3608.44 797.62 3602.45 800.24 3596.78 796.84C3597.42 804.39 3591.8 805.34 3586.08 804.2C3586.42 813.09 3579.42 812.77 3573.39 811.56C3571.38 819.68 3558.97 818.48 3559.19 811.2C3553.15 812.41 3546.15 812.74 3546.49 803.84C3540.78 804.99 3535.16 804.04 3535.79 796.48C3530.12 799.89 3524.13 797.26 3523.09 789.13C3516.28 789.13 3514.46 787.7 3516.41 781.1C3509.87 779.79 3506.87 774.16 3513.74 769.72C3478.56 678.81 3675 710.27 3618.84 770.08Z" fill="black"/>
<path d="M3515.56 653.53C3497.25 684.64 3492.27 707.83 3513.29 723.49C3534.8 729.95 3603.13 733.41 3620.35 724.87C3633.83 713.71 3632.16 674.33 3625.01 662.4C3610 643.14 3531.88 641.9 3515.56 653.53Z" fill="black"/>
<path d="M3478.8 650.461C3469.66 654.781 3463.18 663.901 3458.04 670.761C3452.3 674.951 3445.57 689.801 3452.14 695.081C3445.73 701.141 3449.02 711.751 3444.27 718.091C3456.36 725.061 3441.56 737.261 3452.8 746.351C3451.89 744.371 3452.68 740.331 3452.8 739.781C3454.73 749.911 3456 756.611 3467.14 756.611C3463.11 751.761 3472.27 762.611 3474.7 765.851C3479.61 768.421 3485.18 773.391 3490.39 773.391C3484.57 771.661 3487.6 770.191 3485.81 768.131C3491.64 775.051 3494.78 777.061 3503.24 775.361C3501.23 773.091 3500.36 771.991 3499.31 770.761C3503.91 775.181 3506.97 771.051 3511.82 763.581C3522.77 739.151 3505.79 657.951 3478.8 650.461Z" fill="black"/>
<path d="M3653.68 652.07C3662.83 656.39 3669.31 662.67 3674.44 669.53C3680.18 673.72 3686.92 688.58 3680.34 693.85C3686.75 699.91 3683.47 710.52 3688.21 716.86C3676.13 723.83 3690.92 736.04 3679.69 745.13C3680.59 743.14 3679.8 739.11 3679.69 738.55C3677.76 748.68 3676.49 755.38 3665.35 755.38C3669.37 750.53 3660.22 761.38 3657.78 764.63C3652.87 767.19 3647.3 772.17 3642.09 772.17C3647.92 770.43 3644.88 768.97 3646.68 766.91C3640.85 773.83 3637.7 775.83 3629.24 774.14C3631.25 771.86 3632.13 770.76 3633.17 769.53C3628.58 773.96 3625.52 769.83 3620.67 762.35C3614.84 759.44 3615.17 755.04 3611.07 750.93C3610.09 749.96 3623.37 703.64 3625.26 699.87C3635.07 680.24 3618.36 647.85 3647.01 647.85C3649.22 647.85 3652.04 653.12 3653.68 652.07Z" fill="black"/>
<path d="M3560.79 690.96C3556.94 688.07 3551.65 686.23 3549.94 679.1C3541.46 675.09 3546.03 678.05 3540.57 673.17C3535.79 673.01 3528.16 674.11 3522.81 669.22C3522.73 672.13 3519.23 678.22 3514.42 680.09C3516.22 686.28 3514.71 694.29 3511.96 697.88C3517.75 702.24 3520.18 708.93 3515.9 717.15C3513.92 724.07 3509.98 722.59 3508.01 721.6C3504.72 724.07 3495.16 727.04 3493.7 720.12C3486.48 719.86 3482.52 714.88 3486.3 705.79C3478.42 702.63 3474.22 697.77 3476.93 685.53C3471.78 681.67 3465.93 672.76 3474.98 665.64C3469.22 660.29 3472.93 650.25 3480.51 647.91C3479.01 640.44 3481.59 628.35 3489.32 629.48C3486.55 623.21 3489.17 617.3 3498.45 616.28C3498.45 606.47 3510.8 603.47 3515.96 606.75C3515.96 599.43 3522.19 595.28 3529.77 598.85C3531.25 591.46 3542.17 589.77 3546.62 591.81C3548.37 586.85 3560.07 583.56 3564.34 589.56C3570.75 583.02 3581.68 588.3 3581.6 592.88C3586.06 588.07 3598.82 591.61 3602.14 598.99C3610.73 595.74 3615.63 600.25 3615.96 606.9C3623.42 603.62 3631.62 607.55 3631.62 617.36C3640.9 618.37 3642.6 623.82 3642.6 629.63C3651.25 630.35 3652.91 639.67 3651.42 647.14C3659 649.47 3662.71 657.66 3658.32 663.94C3667.38 671.06 3661.99 681.82 3656.84 685.68C3659.55 697.92 3655.35 702.78 3647.47 705.94C3651.25 715.03 3647.29 720.01 3640.07 720.27C3638.61 727.19 3629.05 724.22 3625.76 721.75C3623.79 722.74 3619.84 724.22 3617.87 717.3C3613.59 709.07 3616.02 702.38 3621.81 698.03C3619.06 694.44 3617.55 686.43 3619.35 680.24C3614.54 678.37 3611.04 672.27 3610.96 669.37C3605.61 674.26 3597.98 673.16 3593.2 673.32C3587.74 678.2 3592.31 675.24 3583.83 679.25C3582.12 686.38 3576.83 688.22 3572.98 691.11C3570.09 698.47 3564.61 702.13 3560.79 690.96Z" fill="black"/>
<path d="M3591.87 749.281C3596.28 753.461 3600.67 761 3607.02 763.75C3608.75 767.15 3609.19 774.721 3606.42 779.561C3617.47 771.151 3627.02 761.87 3618.37 749.91C3621.85 752.53 3624.49 751.941 3625.28 758.811C3628.29 751.271 3630.43 747.78 3620.83 735.09C3624.23 735.09 3627.23 741.54 3633.17 743.49C3638.43 737.42 3631.14 721.901 3618.86 720.271C3613.34 712.141 3605.27 703.761 3591.23 699.021C3584.62 690.191 3575.99 694.971 3566.89 689.061C3557.78 694.821 3549.15 690.04 3542.54 698.87C3528.5 703.61 3520.43 711.99 3514.91 720.12C3502.63 721.75 3495.34 737.27 3500.6 743.34C3506.54 741.4 3509.54 734.94 3512.93 734.94C3503.34 747.63 3505.48 751.12 3508.49 758.66C3509.28 751.79 3511.92 752.381 3515.4 749.771C3506.75 761.721 3516.3 770.391 3527.35 778.801C3523.96 770.891 3526.24 767.621 3526.75 763.601C3533.1 760.851 3541.17 753.93 3545.58 749.75C3550.63 753.95 3564.36 752.43 3567.5 748.24C3571.86 751.35 3586.2 753.491 3591.87 749.281Z" fill="black"/>
<path d="M2806.56 803.519C2826.13 799.299 2839.1 814.429 2848.15 830.909C2839.28 818.099 2829.58 812.649 2818.44 815.689C2830.13 823.609 2837.72 832.769 2842.49 845.159H2835.64C2831.31 839.519 2826.79 835.469 2822.16 832.939C2825.52 835.979 2828.65 840.269 2831.23 845.349L2688.02 844.559C2690.66 839.229 2693.89 834.719 2697.39 831.569C2692.33 834.329 2687.36 838.769 2682.74 845.159H2676.4C2681.14 831.819 2688.85 822.619 2701.1 814.319C2689.96 811.279 2680.27 816.729 2671.4 829.539C2680.45 813.059 2693.42 797.929 2712.98 802.149C2730.28 788.879 2798.76 782.329 2806.56 803.519Z" fill="black"/>
<path d="M2815.46 829.399C2812.97 826.899 2809.43 826.889 2806.43 826.289C2807.55 831.959 2810.54 835.749 2814.53 838.749C2810.78 839.379 2807.21 837.749 2804.25 836.569C2806.05 839.349 2806.99 842.109 2807.61 845.159H2711.09C2711.65 841.909 2713.05 838.919 2714.98 835.949C2712.02 837.139 2708.44 838.769 2704.7 838.129C2708.69 835.139 2711.67 831.349 2712.8 825.669C2709.79 826.269 2706.26 826.289 2703.76 828.779C2705.63 817.869 2723.44 809.519 2728.07 808.529C2748.2 798.229 2773.33 801.369 2791.24 808.529C2795.79 810.129 2813.59 818.479 2815.46 829.399Z" fill="black"/>
<path d="M2731.69 679.76C2735.97 677.14 2737.55 671.97 2738.79 665.78C2735.29 668.94 2732.75 672.52 2729.96 674.6C2734.08 668.84 2735.41 662.41 2734.08 655.78C2732.41 660.66 2730.92 663.26 2729 665.9C2726.47 641.34 2698.98 623.56 2693.29 627.29C2685.72 632.26 2676.87 653.43 2673.01 671.94C2665.01 675.14 2661.49 677.79 2658.21 683.25C2662.64 680.8 2666.68 680.89 2671.73 680.89C2661.68 680.63 2659.92 688.83 2655.85 695.6C2658.99 689.64 2665.44 686.86 2671.73 685.6C2664.45 692.8 2657.62 705.86 2657.62 716.19C2658.18 707.07 2668.29 698.77 2674.09 694.42C2668.14 700.13 2665.55 711.11 2667.03 718.54C2667.46 710.37 2672.6 706.37 2678.79 702.66C2677.31 708.29 2679.06 713.69 2678.21 717.95C2678.31 711.73 2681.89 708.39 2687.03 707.36C2685.39 711.65 2684.68 714.37 2684.68 719.12C2687.86 714.9 2691.33 714.62 2696.14 714.42C2694.04 718.32 2693.01 721.58 2692.32 725.01C2695.56 720.29 2700.61 717.34 2704.86 715.55C2728.18 723.79 2741.41 699.07 2731.69 679.76Z" fill="black"/>
<path d="M2788.84 679.91C2784.56 677.3 2782.98 672.13 2781.74 665.94C2785.24 669.1 2787.78 672.67 2790.56 674.76C2786.44 668.99 2785.12 662.57 2786.44 655.94C2788.12 660.82 2789.61 663.42 2791.53 666.06C2794.06 641.5 2821.55 623.72 2827.24 627.45C2834.81 632.42 2843.65 653.58 2847.51 672.1C2855.51 675.29 2859.04 677.94 2862.32 683.4C2857.89 680.96 2853.85 681.05 2848.79 681.05C2858.85 680.79 2860.61 688.99 2864.67 695.75C2861.54 689.8 2855.08 687.01 2848.79 685.76C2856.08 692.95 2862.91 706.01 2862.91 716.34C2862.34 707.22 2852.24 698.93 2846.44 694.58C2852.39 700.29 2854.98 711.27 2853.49 718.69C2853.06 710.52 2847.92 706.53 2841.73 702.81C2843.22 708.45 2841.47 713.85 2842.32 718.1C2842.22 711.88 2838.63 708.54 2833.5 707.52C2835.14 711.81 2835.85 714.53 2835.85 719.28C2832.66 715.06 2829.2 714.78 2824.38 714.58C2826.49 718.48 2827.52 721.73 2828.2 725.16C2824.96 720.44 2819.91 717.49 2815.67 715.7C2797.66 718.53 2772.87 694.97 2788.84 679.91Z" fill="black"/>
<path d="M2839.67 735.29C2833.49 733.94 2832.23 737.98 2828.85 735.44C2831.27 739.3 2835.73 743.52 2843.47 746.62C2838.6 748.27 2834.53 748.86 2831.01 748.15C2840.8 754.73 2845.36 757.7 2849.33 767.6C2843.53 762.39 2839.29 762.1 2834.44 764.04C2841.27 766.44 2844.74 772.61 2845.76 777.66C2837.67 776.97 2835.54 776.52 2828.72 777.88C2833 778.19 2836.01 783.66 2838.78 784.27C2831 786.25 2831.21 788.8 2822.69 790.5C2829.41 794.81 2831.02 793.7 2835.05 795.71C2822.98 797.75 2811.22 802.48 2803.98 803.93C2794 801.21 2774.42 795.5 2761.27 795.46C2748.89 795.42 2718.39 803.14 2717 804.08C2710.5 802.71 2699.91 797.59 2688.61 795.55C2692.65 793.54 2694.68 792.71 2700.97 789.95C2692.45 788.25 2691.5 786.09 2683.72 784.11C2686.49 783.5 2689.5 778.03 2693.78 777.72C2686.95 776.36 2684.82 776.81 2676.73 777.5C2677.76 772.45 2681.23 766.28 2688.06 763.88C2683.21 761.94 2678.97 762.23 2673.17 767.44C2677.14 757.53 2681.69 754.58 2691.49 747.99C2687.97 748.7 2683.89 748.11 2679.02 746.45C2686.77 743.36 2691.23 739.14 2693.65 735.28C2690.27 737.82 2689.01 733.78 2682.83 735.13C2690.91 729.07 2690.62 728.89 2702.03 716.47C2705.77 713.64 2702.03 710.54 2699.51 710.77C2705.5 707.93 2707.55 704.62 2714.01 705.32C2711.34 703.72 2708.21 701.6 2704.94 701.34C2709.69 699.44 2713.15 699.55 2718.36 700.61C2716.75 696.57 2714.33 691.31 2710.38 689.01C2715.22 689.01 2718.76 691.88 2720.54 696.26C2722.55 691.23 2718.19 685.85 2719.45 680.3C2722.94 681.47 2725.55 683.77 2726.71 687.92C2728.5 683.42 2727.46 678.95 2723.8 675.59C2727.91 676.41 2727.7 677.48 2731.05 680.53C2737.96 679.3 2747.27 678.54 2760.26 678.03C2773.26 677.52 2783.16 679.46 2789.47 680.69C2792.83 677.63 2792.61 676.56 2796.73 675.74C2793.06 679.11 2792.02 683.57 2793.82 688.07C2794.97 683.92 2797.58 681.62 2801.07 680.46C2802.33 686.01 2797.97 691.39 2799.99 696.42C2801.76 692.04 2805.3 689.16 2810.14 689.16C2806.19 691.47 2803.78 696.73 2802.16 700.77C2807.37 699.71 2810.83 699.59 2815.58 701.49C2812.32 701.76 2809.19 703.87 2806.52 705.48C2812.98 704.77 2815.02 708.09 2821.02 710.92C2818.5 710.69 2814.75 713.79 2819.48 716.62C2831.88 729.05 2831.59 729.23 2839.67 735.29Z" fill="black"/>
<path d="M1904 844.471C1911.17 816.761 1914.55 805.591 1929.9 771.931C1943.14 768.601 1996.53 834.251 1993.48 846.591L1904 844.471Z" fill="black"/>
<path d="M2059.65 771.449C2066.88 799.619 2075.87 815.299 2084.86 843.869L1987.21 845.499C1991.76 820.459 2035.38 773.969 2059.65 771.449Z" fill="black"/>
<path d="M1920.15 799.689C1945.24 823.869 1963.46 829.709 1993.12 843.869C2022.77 829.229 2040.95 821.349 2067.12 799.209C2070.74 777.999 2063.4 746.759 2055.32 734.429C2033.13 705.299 1950.37 715.559 1935.29 730.009C1926.78 743.069 1916.52 777.079 1920.15 799.689Z" fill="black"/>
<path d="M1958.33 607.37C1956.53 594.27 1957.05 579.56 1952.72 567.4C1945.39 546.85 1927.73 512.9 1916.98 519.7C1894.74 533.77 1882.49 599.05 1893.15 620C1888.55 638.92 1902.64 649.22 1909.97 646.65C1915.7 648.23 1920.13 649.73 1923.81 651.2C1940.26 644.28 1949.4 633.24 1958.94 623.7C1958.94 617.39 1957.84 613.85 1958.33 607.37Z" fill="black"/>
<path d="M2077.68 646.65C2085.02 649.22 2099.11 638.92 2094.5 620C2105.16 599.05 2092.92 533.77 2070.67 519.71C2059.92 512.9 2042.26 546.85 2034.94 567.4C2030.59 579.56 2031.13 594.27 2029.33 607.37C2030.17 613.13 2029.8 620.58 2030.73 625.23C2040.57 636.24 2052.17 645.12 2058.23 649.67C2064.97 651.81 2074.07 652.42 2077.68 646.65Z" fill="black"/>
<path d="M1926.09 754.049C1904.78 750.769 1906.52 696.649 1911.37 683.119C1907.14 675.979 1908.23 648.629 1913.26 642.649C1920.64 628.949 1937.35 617.099 1956.92 608.779C1963.85 605.389 1982.53 605.059 1993.83 604.569C2005.12 604.069 2023.8 605.389 2030.73 608.779C2049.46 615.549 2070.15 633.999 2073.37 643.299C2079.19 649.929 2080.27 677.279 2076.04 684.419C2080.89 697.949 2081.82 750.059 2061.33 754.149C2029.45 759.589 1950.72 760.349 1926.09 754.059V754.049Z" fill="black"/>
<path d="M1993.5 779C1983.25 778.85 1971.64 778.04 1962.83 773.23C1936.6 717.53 2041.84 728.56 2022.94 773.29C2014.66 779.04 2003.75 779.16 1993.5 779.01V779Z" fill="black"/>
<path d="M1963.48 697.511C1948.22 707.021 1935.84 721.941 1928.59 738.101C1923.49 749.461 1925.1 767.861 1940.4 781.101C1960.12 798.171 1959.9 750.94 1992.1 751.44C2024.3 751.94 2026.88 798.46 2046.61 781.39C2061.9 768.15 2063.51 749.751 2058.42 738.391C2051.16 722.231 2038.78 707.311 2023.52 697.801C2006.72 686.881 1977.98 688.121 1963.48 697.511Z" fill="black"/>
<path d="M1354.81 846.65C1366.87 804.88 1393.46 762.481 1409.11 763.061C1424.99 763.641 1457.48 804.65 1472 846.65H1354.81Z" fill="black"/>
<path d="M1371.78 651.991C1364.67 661.261 1366.41 676.731 1365.8 682.801C1352.06 711.651 1372.52 781.461 1414.69 800.761C1455.36 782.951 1478.91 717.351 1460.59 682.781C1459.98 676.711 1461.71 661.241 1454.61 651.981C1425.7 618.991 1404.41 620.951 1371.78 651.991Z" fill="black"/>
<path d="M1509.2 806.261C1509.94 817.541 1509.51 832.331 1507.67 846.651H1430.21C1419.81 825.301 1409 786.371 1466.62 717.721C1483.52 745.001 1507.41 778.921 1509.2 806.261Z" fill="black"/>
<path d="M1322.64 805.409C1320.85 814.679 1320.19 830.389 1322.01 846.649H1399.11C1411.65 824.579 1411.01 788.499 1363.35 720.109C1346.45 747.379 1327.75 778.959 1322.64 805.409Z" fill="black"/>
<path d="M1440.67 525.901C1447.59 512.651 1458.3 492.69 1470.3 491.49C1485.89 489.93 1497.3 509.011 1512.71 519.271C1532.98 532.761 1551.77 524.791 1529.1 537.061C1520.65 541.931 1515.84 545.17 1502.28 542.62C1497.87 547.05 1492.33 551.411 1479.82 554.521C1477.5 558.221 1473.19 558.761 1472.25 559.141C1460.2 550.041 1449.47 540.901 1441.14 534.661C1440.19 531.691 1440.5 528.921 1440.67 525.901Z" fill="black"/>
<path d="M1346.41 553.951C1333.31 550.701 1327.53 546.071 1322.75 541.731C1309.05 544.601 1304.24 541.361 1295.79 536.491C1273.12 524.221 1291.91 532.191 1312.17 518.701C1327.59 508.441 1339 489.371 1354.58 490.921C1366.59 492.121 1378.64 511.411 1385.56 524.661C1388.41 527.931 1389.09 529.981 1390.17 532.681C1383.42 543.031 1367.75 559.921 1358.4 561.791C1353.3 559.751 1350.81 557.111 1346.41 553.951Z" fill="black"/>
<path d="M1447.71 656.6C1453.93 648.36 1458.16 637.55 1460.04 624.39C1469.32 611.45 1485.76 582.46 1479.91 554.16C1475.13 543.34 1455.72 530.66 1440.29 525.88C1428.67 522.27 1396.14 522.27 1385.4 525.21C1368.71 533.5 1348.87 546.27 1344.88 555.54C1339.79 583.23 1358.89 611.34 1365.51 625.16C1367.25 637.35 1371.02 647.52 1376.5 655.51C1389.61 672.13 1441.28 667.78 1447.71 656.6Z" fill="black"/>
<path d="M3389.47 764.24C3405.33 787.4 3415.69 815.381 3413.58 845.531L3182.1 846.091C3179.46 815.281 3189.92 786.661 3206.08 763.061L3389.47 764.24Z" fill="black"/>
<path d="M3215.42 722.279C3199.77 732.789 3187.54 761.609 3205.06 785.689C3210.01 817.549 3223.77 836.579 3240.51 845.569L3352.01 845.889C3368.95 837.029 3382.92 817.929 3387.92 785.789C3405.43 761.709 3393.2 732.889 3377.55 722.379L3215.42 722.279Z" fill="black"/>
<path d="M3381.17 693.009C3385.57 700.939 3389.23 721.649 3386.69 735.769C3384.5 747.989 3371.38 768.189 3359.11 778.519C3346.24 789.359 3324.09 784.009 3298.34 779.939C3272.58 784.149 3247.68 789.499 3234.8 778.659C3222.53 768.329 3209.42 748.129 3207.22 735.909C3204.68 721.789 3208.34 701.079 3212.74 693.159C3214.33 657.839 3232.31 630.049 3242.27 623.909C3254.79 621.859 3277.81 617.309 3296.96 617.229C3316.1 617.159 3339.12 621.719 3352.14 623.489C3367.5 635.419 3377.84 663.759 3381.17 693.009Z" fill="black"/>
<path d="M3230.31 617.3C3220.24 619.48 3190.87 649.61 3166.9 663.89C3153.87 671.65 3178.01 702.75 3196.66 701.42C3221.17 699.67 3225.16 636.85 3244.76 623.85C3237.89 623.25 3239.58 615.28 3230.31 617.3Z" fill="black"/>
<path d="M3363.6 617.16C3373.67 619.34 3403.04 649.47 3427.01 663.75C3440.04 671.5 3415.9 702.61 3397.25 701.28C3372.74 699.53 3368.75 636.02 3349.15 623.36C3356.03 623.11 3354.33 615.14 3363.6 617.16Z" fill="black"/>
<path d="M2462.17 829.48C2457.14 833.49 2451.41 838.12 2447.34 843.97L2594.17 844.38C2590.07 838.44 2585.44 833.2 2580.34 829.15L2462.17 829.48Z" fill="black"/>
<path d="M2578.87 784.97C2588.95 797.15 2591.33 822.56 2588.81 843.66L2455.26 843.54C2452.41 823.39 2453.41 797.68 2463.65 785.3C2481.84 758.48 2554.31 760.48 2578.87 784.97Z" fill="black"/>
<path d="M2493.1 825.9C2475.46 823.13 2456.96 790.12 2454.74 776.56C2450.3 749.47 2461.12 729.49 2465.63 712.73C2469.47 700.22 2476.28 689.7 2480.15 683.82C2488.96 680.46 2498.95 679.06 2509.9 678.59C2517.46 678.85 2525.68 678.08 2536.23 678.74C2547.85 679.29 2558.44 680.65 2567.45 684.01C2571.3 689.43 2578.22 704 2580.92 713.1C2585.43 729.85 2592.84 750.28 2589.88 777.56C2588.2 793.16 2568.8 822.89 2551.28 826.27C2535.82 833.51 2512.17 834.02 2493.1 825.9Z" fill="black"/>
<path d="M2577.63 666.75C2596.77 670.06 2620.34 680.24 2632.24 688.17C2642.72 695.16 2623.02 740.5 2602.25 747.08C2591.5 750.49 2577.49 693.83 2563.6 685.28C2565.46 677.83 2572.13 665.8 2577.63 666.75Z" fill="black"/>
<path d="M2468.92 666.38C2449.77 669.69 2426.21 679.87 2414.31 687.8C2403.83 694.79 2423.53 740.13 2444.3 746.72C2455.05 750.13 2467.14 695.38 2482.63 685.55C2482.37 676.82 2474.42 665.43 2468.92 666.38Z" fill="black"/>
<path d="M2141.57 824.351C2139.08 830.281 2137.67 837.111 2137.32 844.081L2377.08 844.111C2376.82 836.781 2375.4 829.561 2372.79 823.351C2335.52 764.411 2176.56 746.771 2141.57 824.361V824.351Z" fill="black"/>
<path d="M2159.89 727.85C2153.67 732.41 2153.24 736.4 2145.61 740.97C2147.62 741.46 2143.58 741.71 2148.84 744.06C2145.56 749.92 2146.54 748.83 2142.53 751.77C2142.48 757.13 2145.91 756.19 2147.26 757.95C2143.13 761.44 2141.45 762.96 2139.37 765.67C2141.86 767.89 2146.33 770.2 2146.47 770.3C2141.77 774.78 2140.11 775.51 2137 779.56C2139.44 784.52 2140.47 780.56 2143.32 782.65C2138.41 786.69 2133.84 796.09 2133.84 801.95C2141.5 798.59 2130.69 810.44 2137 820.47C2139.68 819.08 2140.56 818.49 2142.53 817.39C2138.85 823.58 2138.04 830.74 2140.55 838.23C2142.75 836.3 2143.67 837.2 2146.47 835.14C2145.24 838.9 2145.09 842.1 2145.85 844.84L2367.74 843.8C2368.49 841.07 2368.34 837.88 2367.11 834.15C2369.91 836.21 2370.84 835.31 2373.03 837.24C2375.54 829.75 2374.74 822.59 2371.06 816.4C2373.03 817.5 2373.9 818.1 2376.58 819.49C2382.9 809.45 2372.08 797.6 2379.74 800.96C2379.74 795.1 2375.17 785.7 2370.27 781.66C2373.12 779.57 2374.15 783.53 2376.58 778.58C2373.47 774.52 2371.82 773.8 2367.11 769.31C2367.25 769.21 2371.72 766.91 2374.21 764.68C2372.13 761.97 2370.45 760.45 2366.32 756.96C2367.67 755.2 2371.11 756.14 2371.06 750.78C2367.05 747.84 2368.02 748.93 2364.74 743.06C2370 740.72 2364.42 739.7 2366.42 739.21C2358.8 734.64 2359.91 731.42 2353.69 726.85L2159.89 727.85Z" fill="black"/>
<path d="M2232.5 632.4C2228.71 619.95 2204.24 605.45 2192.03 602.05C2176.58 597.74 2169.46 658.57 2171.01 675.21C2171 675.49 2170.63 678.25 2171.2 678.81C2188.94 696.56 2241.09 649.86 2232.5 632.4Z" fill="black"/>
<path d="M2288.42 634.371C2292.21 621.921 2316.68 607.421 2328.9 604.021C2344.34 599.711 2351.47 660.541 2349.91 677.181C2349.92 677.461 2350.29 680.231 2349.73 680.781C2331.98 698.541 2279.83 651.831 2288.42 634.371Z" fill="black"/>
<path d="M2284.92 805.749C2285.48 803.189 2284.62 799.529 2285.04 796.249C2286.75 797.539 2290.76 803.119 2293.75 804.359C2293.75 802.379 2298.42 800.6 2295.69 796.62C2299.67 799.6 2299.68 801.809 2302.46 805.199C2304.08 803.039 2305.21 802.469 2305.42 797.639C2309.48 799.269 2311.36 798.949 2314.01 804.529C2314.65 801.629 2318.24 803.649 2315.58 797.459C2321.03 798.549 2323.19 799.349 2326.59 805.319C2326.72 804.989 2329.25 801.439 2328.48 797.729C2331.36 798.009 2333.52 796.809 2335.71 798.009C2337.02 796.399 2337.99 795.409 2337.94 792.339C2339.82 793.029 2341.61 792.629 2343.51 794.399C2343.81 793.009 2344.76 790.489 2343.51 788.219C2344.71 787.999 2346.98 786.799 2349.08 787.189C2349.85 785.399 2351.24 783.999 2349.08 780.499C2351.52 780.499 2353.92 780.379 2356.32 781.009C2356.32 780.289 2356.29 775.539 2356.32 773.289C2358.25 773.689 2359.17 772.269 2361.33 774.319C2362 771.219 2362.59 767.939 2359.66 765.049C2361.99 765.479 2364.18 765.899 2366.9 765.559C2366.38 763.169 2364.67 760.599 2364.67 757.329H2365.23C2366.16 756.639 2367.08 755.959 2368.01 755.269C2367.29 753.599 2366.36 752.209 2365.79 749.599C2367.45 748.989 2368.75 748.209 2371.35 747.029C2371.35 743.109 2370.34 742.179 2366.9 739.309C2369.58 738.319 2371.22 737.289 2375.25 737.759C2374.54 734.469 2372.17 731.819 2370.24 728.489C2371.99 727.849 2373.23 727.539 2374.14 724.889C2372.75 721.689 2371.39 719.089 2369.13 716.139C2370.16 715.309 2370.25 713.859 2373.02 713.049C2371.89 710.419 2371.38 709.139 2367.46 707.899C2368.94 706.069 2369.33 705.609 2372.47 703.779C2369.82 701.939 2368.09 699.639 2363 699.149C2364.89 697.399 2366.23 696.279 2367.46 693.479C2365.9 692.049 2363.25 689.349 2360.77 688.329C2361.95 686.699 2360.86 685.439 2364.11 683.699C2361.92 682.179 2361.08 680.649 2357.43 679.579C2358.55 677.859 2359.22 676.339 2360.77 674.429C2358.45 671.569 2357.23 671.169 2352.98 670.829C2353.73 669.079 2355.29 667.779 2355.76 664.649C2354.11 663.729 2350.63 662.559 2347.96 661.049V660.529C2348.15 659.499 2348.34 658.469 2348.52 657.439C2346.88 657.139 2343.77 656.399 2341.28 656.929C2340.76 654.509 2341.96 652.689 2341.85 649.839C2339.35 650.309 2336.89 649.029 2334.19 649.699C2333.68 647.349 2335.71 646.739 2334.2 644.039C2331.32 644.569 2328.5 642.899 2325.57 644.939C2324.88 643.879 2324.88 640.339 2325.85 638.379C2323.8 637.619 2319.71 638.249 2316.51 639.409C2316.51 636.989 2315.78 634.369 2317.08 632.059C2314.94 631.659 2310.57 632.599 2307.73 632.709C2307.17 631.559 2310.04 627.319 2308.58 625.749C2306.44 624.269 2303.2 626.029 2299.24 627.949C2298.52 626.279 2298.95 623.239 2298.28 621.249C2295.53 621.759 2293.48 623.229 2290.33 623.569C2290.26 622.999 2289.86 620.479 2288.93 618.819C2286.49 618.819 2282.96 620.229 2280.58 621.399C2280.33 619.279 2279.75 619.679 2280.02 616.759C2277.04 616.759 2275.65 616.659 2272.23 619.339C2270.88 617.469 2270.23 618.589 2267.05 615.379C2265.43 616.509 2266.35 618.859 2263.5 619.139C2262.61 618.319 2261.62 616.239 2259.71 615.109C2257.38 617.219 2257.65 618.519 2256.76 619.339C2253.92 619.059 2253 616.359 2251.38 615.239C2247.83 617.769 2248.65 619.019 2247.3 620.889C2243.88 618.209 2243.96 616.959 2240.98 616.959C2241.25 619.879 2237.72 619.089 2237.47 621.199C2235.09 620.429 2233.25 617.849 2230.8 617.849C2229.88 619.509 2229.05 622.419 2227.72 624.549C2224.58 624.209 2224.63 621.559 2221.88 621.049C2221.2 623.049 2219.11 626.479 2218.39 628.149C2214.44 626.229 2214.14 626.419 2212 625.559C2210.54 627.129 2210.45 632.139 2209.9 633.299C2207.06 633.199 2204.79 631.469 2202.66 631.869C2203.96 634.179 2201.12 637.189 2201.12 639.599C2197.92 638.439 2195.93 637.819 2193.88 638.569C2194.86 640.539 2194.01 643.689 2193.33 644.749C2190.39 642.709 2188.84 644.379 2185.95 643.849C2184.45 646.549 2187.32 648.709 2186.81 651.069C2184.11 650.399 2183.33 650.889 2180.83 650.429C2180.72 653.279 2180.24 654.709 2179.72 657.119C2177.24 656.599 2174.11 657.339 2172.48 657.639C2172.67 658.669 2172.85 659.699 2173.04 660.729V661.239C2170.38 662.759 2166.89 663.929 2165.24 664.849C2165.71 667.979 2167.27 669.279 2168.03 671.019C2163.78 671.369 2162.55 671.759 2160.23 674.629C2161.78 676.529 2162.45 678.059 2163.57 679.779C2159.92 680.849 2159.08 682.369 2156.89 683.899C2160.14 685.639 2159.06 686.899 2160.23 688.529C2157.74 689.549 2155.09 692.249 2153.55 693.679C2154.77 696.469 2156.11 697.589 2158 699.339C2152.91 699.829 2151.18 702.139 2148.53 703.979C2151.67 705.799 2152.06 706.269 2153.55 708.099C2149.63 709.329 2149.11 710.619 2147.98 713.239C2150.75 714.059 2150.84 715.509 2151.87 716.329C2149.61 719.289 2148.25 721.889 2146.86 725.089C2147.76 727.739 2149.01 728.039 2150.76 728.689C2148.83 732.009 2146.46 734.659 2145.75 737.959C2149.78 737.489 2151.42 738.509 2154.1 739.499C2150.65 742.379 2149.65 743.309 2149.65 747.229C2152.25 748.409 2153.55 749.189 2155.22 749.799C2154.64 752.409 2153.71 753.799 2152.99 755.469C2153.92 756.149 2154.84 756.839 2155.77 757.529H2156.33C2156.33 760.799 2154.62 763.369 2154.1 765.759C2156.82 766.099 2159.01 765.679 2161.34 765.249C2158.41 768.139 2159 771.419 2159.67 774.519C2161.83 772.459 2162.76 773.879 2164.68 773.489C2164.7 775.739 2164.68 780.489 2164.68 781.209C2167.09 780.579 2169.47 780.699 2171.92 780.699C2169.76 784.199 2171.14 785.599 2171.92 787.389C2174.02 786.999 2176.29 788.199 2177.49 788.419C2176.24 790.689 2177.19 793.209 2177.49 794.599C2179.39 792.819 2181.19 793.229 2183.06 792.539C2183.01 795.599 2183.98 796.599 2185.29 798.199C2187.49 796.999 2190.61 796.259 2192.47 796.349C2190.69 800.419 2193.21 803.959 2193.34 804.299C2196.74 798.319 2198.9 797.519 2204.35 796.429C2201.69 802.629 2205.28 800.599 2205.92 803.509C2208.57 797.929 2210.45 798.24 2214.51 796.62C2214.72 801.45 2215.85 802.019 2217.47 804.179C2220.25 800.789 2220.27 798.579 2224.24 795.589C2221.52 799.569 2226.18 801.359 2226.18 803.339C2229.17 802.099 2233.18 796.509 2234.9 795.229C2235.31 798.499 2234.45 802.169 2235.02 804.729C2238.46 803.029 2242.55 798.769 2243.32 796.839C2244.99 799.009 2245.6 799.699 2246.48 801.899C2249.99 799.539 2250.64 797.499 2252.79 794.629C2255.75 796.779 2253.51 799.039 2252.79 799.999C2256.66 799.769 2259.14 795.769 2259.75 792.729C2261.95 797.009 2263.23 799.179 2267.65 800.949C2266.68 797.809 2267.81 795.789 2268.91 794.309C2270.27 798.949 2273.2 801.919 2276.81 803.159C2277.46 800.349 2275.39 798.279 2275.86 795.889C2278.66 799.999 2281.94 804.259 2284.92 805.749Z" fill="black"/>
<path d="M61.0018 844.09C59.5088 844.09 58.2988 845.3 58.2988 846.8C58.2988 848.29 59.5088 849.5 61.0018 849.5H5281C5282.5 849.5 5283.7 848.29 5283.7 846.8C5283.7 845.3 5282.5 844.09 5281 844.09H61.0018Z" fill="black"/>
<path d="M2928.15 823.291C2906.03 827.541 2898.5 857.301 2932.58 854.591C2965.82 851.941 2944.24 820.191 2928.15 823.291Z" fill="black"/>
<path d="M3104.32 822.85C3126.44 827.11 3133.97 856.87 3099.89 854.16C3066.64 851.51 3088.24 819.76 3104.32 822.85Z" fill="black"/>
<path d="M3486.91 821.02C3470.17 820.14 3456.1 846.34 3470.33 850.04C3480.91 852.8 3502.9 852.64 3506.91 847.94C3513.87 839.76 3502.58 821.86 3486.91 821.02Z" fill="black"/>
<path d="M3655.79 818.35C3672.53 817.46 3686.59 843.66 3672.37 847.36C3661.79 850.12 3639.8 849.97 3635.79 845.26C3628.83 837.08 3640.12 819.18 3655.79 818.35Z" fill="black"/>
<path d="M2684.07 823.15C2663.93 827.02 2657.07 854.12 2688.1 851.65C2718.37 849.24 2698.72 820.33 2684.07 823.15Z" fill="black"/>
<path d="M2835.39 824.639C2855.52 828.519 2862.38 855.609 2831.35 853.139C2801.08 850.729 2820.74 821.829 2835.39 824.639Z" fill="black"/>
<path d="M1906.05 815.221C1867.86 820.731 1901.35 884.731 1922.93 877.191C1942.8 870.261 1932.58 811.401 1906.05 815.221Z" fill="black"/>
<path d="M2073.12 815.799C2111.3 821.309 2077.82 885.309 2056.24 877.769C2036.37 870.839 2046.58 811.979 2073.12 815.799Z" fill="black"/>
<path d="M1481.63 878.111C1493.58 888.741 1527.48 844.791 1523.69 834.001C1518.68 819.741 1501.28 813.451 1489.83 829.891C1481.01 842.571 1472.16 869.681 1481.63 878.111Z" fill="black"/>
<path d="M1355.1 878.359C1343.14 888.989 1309.25 845.039 1313.04 834.249C1318.05 819.999 1335.45 813.709 1346.89 830.139C1355.72 842.819 1364.58 869.929 1355.1 878.359Z" fill="black"/>
<path d="M3191.86 816.95C3147.64 828.59 3187.15 876.47 3205.45 870.81C3226.47 864.31 3212.83 811.43 3191.86 816.95Z" fill="black"/>
<path d="M3406.82 822.32C3447.85 831.63 3410.13 881.83 3391.82 876.17C3370.8 869.68 3383.39 817 3406.82 822.32Z" fill="black"/>
<path d="M2436.43 821.28C2403.88 822.82 2423.65 863.64 2444.86 857.21C2458.86 852.97 2464.43 819.94 2436.43 821.28Z" fill="black"/>
<path d="M2603.37 823.91C2635.92 825.46 2616.15 866.28 2594.93 859.85C2580.94 855.61 2575.37 822.58 2603.37 823.91Z" fill="black"/>
<path d="M2144.66 820.96C2120.08 817.91 2107.65 852.51 2141.4 853.64C2166.83 854.5 2166.71 823.7 2144.66 820.96Z" fill="black"/>
<path d="M2371.22 821.05C2395.8 818 2408.23 852.59 2374.49 853.73C2349.05 854.59 2349.17 823.78 2371.22 821.05Z" fill="black"/>
<path d="M4252.58 865.46C4242.33 849.51 4263.48 824.65 4286.62 825.09C4311.06 825.55 4328.65 851.97 4317.12 867.63C4308.35 879.55 4259.91 876.86 4252.58 865.46Z" fill="black"/>
<path d="M4000.05 862.081C3989.81 846.141 4010.95 821.281 4034.09 821.711C4058.53 822.171 4076.12 848.601 4064.59 864.261C4055.82 876.181 4007.38 873.491 4000.05 862.081Z" fill="black"/>
<path d="M1560.5 834.3C1559.62 848.69 1582.96 885.97 1607.69 880.23C1632.39 874.5 1619.96 827.321 1605.18 816.311C1586.28 802.231 1561.53 817.06 1560.5 834.3Z" fill="black"/>
<path d="M1856.72 838.849C1857.6 853.239 1834.26 890.509 1809.53 884.769C1784.83 879.039 1797.26 831.859 1812.04 820.849C1830.94 806.779 1855.69 821.609 1856.72 838.839V838.849Z" fill="black"/>
<path d="M4342.31 814.921C4338.23 842.461 4378.62 888.911 4399.13 881.221C4423.62 872.031 4416.55 819.021 4394.4 800.711C4371.97 782.191 4346.21 788.501 4342.31 814.921Z" fill="black"/>
<path d="M4716.66 815.65C4720.73 843.19 4680.34 889.64 4659.84 881.95C4635.35 872.76 4642.42 819.75 4664.57 801.44C4687 782.91 4712.76 789.23 4716.66 815.65Z" fill="black"/>
<path d="M1262.64 821.601C1277.38 849.981 1256.1 921.85 1227.89 920.22C1203.83 918.83 1204.42 835.78 1218.82 817.66C1233.12 799.65 1250.37 797.971 1262.64 821.601Z" fill="black"/>
<path d="M911.972 817.351C897.235 845.731 918.52 917.6 946.727 915.97C970.785 914.58 970.193 831.53 955.797 813.41C941.497 795.4 924.241 793.721 911.972 817.351Z" fill="black"/>
<path d="M618.217 810.039C564.988 829.539 609.975 900.869 637.555 893.839C675.849 884.069 653.385 797.159 618.217 810.039Z" fill="black"/>
<path d="M851.091 817.971C904.323 837.471 859.335 908.791 831.755 901.761C793.461 892.001 815.923 805.081 851.091 817.971Z" fill="black"/>
<path d="M4804.18 777.829C4774.48 765.679 4736.55 790.629 4731.85 828.749C4726.8 869.759 4795.77 910.479 4825.91 892.609C4861.13 871.719 4851.67 797.259 4804.18 777.829Z" fill="black"/>
<path d="M5144.71 778.16C5174.4 766.01 5212.33 790.971 5217.03 829.081C5222.07 870.091 5153.11 910.81 5122.97 892.94C5087.75 872.06 5097.2 797.6 5144.71 778.16Z" fill="black"/>
<path d="M124.13 846.34C110.259 824.74 138.885 791.09 170.217 791.68C203.308 792.3 227.126 828.08 211.52 849.28C199.641 865.42 134.054 861.78 124.13 846.34Z" fill="black"/>
<path d="M471.73 848.15C457.857 826.56 486.485 792.9 517.816 793.49C550.907 794.11 574.724 829.89 559.118 851.09C547.241 867.23 481.652 863.6 471.73 848.15Z" fill="black"/>
<path d="M3754.22 883.41C3737.73 894.33 3698.84 850.17 3702.66 834.42C3708.07 812.09 3730.65 804.35 3752.49 821.15C3760.83 827.57 3779.18 873.09 3754.22 883.41Z" fill="black"/>
<path d="M3928.5 887.7C3944.99 898.63 3983.89 854.47 3980.07 838.72C3974.66 816.39 3952.08 808.65 3930.23 825.45C3921.89 831.87 3903.54 877.39 3928.5 887.7Z" fill="black"/>
</g>
</g>
<defs>
<clipPath id="clip0_1769_2087">
<rect width="5341" height="1000" fill="white"/>
</clipPath>
</defs>
</svg>
